# xmcd
#
# Track frame offsets:
# 150
# 16117
# 32645
# 53339
# 67650
# 82556
# 102833
# 120187
# 138298
# 155914
# 173283
# 204011
# 228348
# 253758
# 272326
# 291776
# 309858
# 321865
#
# Disc length: 4493 seconds
#
#
# Revision: 0
# Processed by: cddbd v1.5.2PL0 Copyright (c) Steve Scherf et al.
# Submitted via: FreeRIP 2.951 
#
DISCID=c8118b12
DTITLE=Paraíso Tropical - Internacional
DYEAR=2007
DGENRE=Blues
TTITLE0=You give me something
TTITLE1=Last Request
TTITLE2=P.D.A we just don't care
TTITLE3=Have you ever seen the rain?
TTITLE4=Without you
TTITLE5=Me and Mrs. Jones
TTITLE6=Since fell for you
TTITLE7=You go to ny head
TTITLE8=Summerwind
TTITLE9=Mon manege a moi
TTITLE10=Chaya Chaya
TTITLE11=The thrill is gone
TTITLE12=Breezin
TTITLE13=The man i love
TTITLE14=So many stars
TTITLE15=Dream Dancing
TTITLE16=I'm sorry
TTITLE17=Vida mia
EXTD=NELDVD:2007
EXTT0=
EXTT1=
EXTT2=
EXTT3=
EXTT4=
EXTT5=
EXTT6=
EXTT7=
EXTT8=
EXTT9=
EXTT10=
EXTT11=
EXTT12=
EXTT13=
EXTT14=
EXTT15=
EXTT16=
EXTT17=
PLAYORDER=
